<?xml version="1.0" encoding="utf-8"?>
<!-- Generator: Adobe Illustrator 15.1.0, SVG Export Plug-In . SVG Version: 6.00 Build 0)  -->
<!DOCTYPE svg PUBLIC "-//W3C//DTD SVG 1.0//EN" "http://www.w3.org/TR/2001/REC-SVG-20010904/DTD/svg10.dtd">
<svg version="1.0" id="_x5F_10" xmlns="http://www.w3.org/2000/svg" xmlns:xlink="http://www.w3.org/1999/xlink" x="0px" y="0px"
	 width="64px" height="64px" viewBox="0 0 64 64" enable-background="new 0 0 64 64" xml:space="preserve">
<g>
	<path d="M39.147,28.955c-1.706,0-2.884,2.171-2.884,6.884c0,4.62,1.116,6.821,2.914,6.821c1.829,0,2.821-2.295,2.821-6.883
		C41.999,31.312,41.038,28.955,39.147,28.955z"/>
	<path d="M60.529,14.649l-15.858-3.937c-0.917-0.234-1.823-0.337-2.69-0.336c-0.047-0.001-0.09-0.007-0.137-0.007h-2.947
		c-0.744,3.1-3.527,5.407-6.856,5.407s-6.112-2.307-6.857-5.407h-2.851c-0.046,0-0.091,0.006-0.137,0.007
		c-0.875-0.004-1.789,0.1-2.715,0.336L3.624,14.649c-1.081,0.268-1.734,1.361-1.459,2.44l1.729,6.779
		c0.275,1.079,1.375,1.737,2.456,1.468l5.022-1.247c1.081-0.268,1.957,0.417,1.957,1.531v31.837c0,1.113,0.903,2.018,2.017,2.018
		h33.486c1.113,0,2.018-0.904,2.018-2.018V25.626c0-1.114,0.875-1.799,1.957-1.531l4.996,1.24c1.081,0.268,2.182-0.389,2.456-1.468
		l1.729-6.779C62.264,16.009,61.611,14.917,60.529,14.649z M28.298,45.885H23.74V29.917h-0.062l-3.845,1.829l-0.775-3.535
		l5.364-2.48h3.876V45.885z M39.085,46.226c-5.209,0-7.504-4.682-7.534-10.387c0-5.86,2.449-10.449,7.658-10.449
		c5.364,0,7.503,4.806,7.503,10.325C46.712,41.916,44.201,46.226,39.085,46.226z"/>
	<polygon fill="#FFFFFF" points="19.058,28.211 19.833,31.746 23.678,29.917 23.74,29.917 23.74,45.885 28.298,45.885 
		28.298,25.731 24.422,25.731 	"/>
	<path fill="#FFFFFF" d="M39.209,25.39c-5.209,0-7.658,4.589-7.658,10.449c0.03,5.705,2.325,10.387,7.534,10.387
		c5.116,0,7.627-4.31,7.627-10.511C46.712,30.195,44.573,25.39,39.209,25.39z M39.178,42.66c-1.798,0-2.914-2.201-2.914-6.821
		c0-4.713,1.178-6.884,2.884-6.884c1.891,0,2.852,2.357,2.852,6.822C41.999,40.365,41.007,42.66,39.178,42.66z"/>
</g>
</svg>
