<?xml version="1.0" encoding="utf-8"?>
<!-- Generator: Adobe Illustrator 15.1.0, SVG Export Plug-In . SVG Version: 6.00 Build 0)  -->
<!DOCTYPE svg PUBLIC "-//W3C//DTD SVG 1.0//EN" "http://www.w3.org/TR/2001/REC-SVG-20010904/DTD/svg10.dtd">
<svg version="1.0" id="_x5F_11" xmlns="http://www.w3.org/2000/svg" xmlns:xlink="http://www.w3.org/1999/xlink" x="0px" y="0px"
	 width="64px" height="64px" viewBox="0 0 64 64" enable-background="new 0 0 64 64" xml:space="preserve">
<g>
	<path d="M60.529,14.649l-15.858-3.937c-0.917-0.234-1.823-0.337-2.69-0.336c-0.047-0.001-0.09-0.007-0.137-0.007h-2.947
		c-0.744,3.1-3.527,5.407-6.856,5.407s-6.112-2.307-6.857-5.407h-2.851c-0.046,0-0.091,0.006-0.137,0.007
		c-0.875-0.004-1.789,0.1-2.715,0.336L3.624,14.649c-1.081,0.268-1.734,1.361-1.459,2.44l1.729,6.779
		c0.275,1.079,1.375,1.737,2.456,1.468l5.022-1.247c1.081-0.268,1.957,0.417,1.957,1.531v31.837c0,1.113,0.903,2.018,2.017,2.018
		h33.486c1.113,0,2.018-0.904,2.018-2.018V25.626c0-1.114,0.875-1.799,1.957-1.531l4.996,1.24c1.081,0.268,2.182-0.389,2.456-1.468
		l1.729-6.779C62.264,16.009,61.611,14.917,60.529,14.649z M28.298,45.885H23.74V29.917h-0.062l-3.845,1.829l-0.775-3.535
		l5.364-2.48h3.876V45.885z M42.402,45.885h-4.558V29.917h-0.062l-3.844,1.829l-0.775-3.535l5.363-2.48h3.876V45.885z"/>
	<polygon fill="#FFFFFF" points="19.058,28.211 19.833,31.746 23.678,29.917 23.74,29.917 23.74,45.885 28.298,45.885 
		28.298,25.731 24.422,25.731 	"/>
	<polygon fill="#FFFFFF" points="33.163,28.211 33.938,31.746 37.782,29.917 37.845,29.917 37.845,45.885 42.402,45.885 
		42.402,25.731 38.526,25.731 	"/>
</g>
</svg>
