<?xml version="1.0" encoding="utf-8"?>
<!-- Generator: Adobe Illustrator 15.1.0, SVG Export Plug-In . SVG Version: 6.00 Build 0)  -->
<!DOCTYPE svg PUBLIC "-//W3C//DTD SVG 1.0//EN" "http://www.w3.org/TR/2001/REC-SVG-20010904/DTD/svg10.dtd">
<svg version="1.0" id="_x5F_12" xmlns="http://www.w3.org/2000/svg" xmlns:xlink="http://www.w3.org/1999/xlink" x="0px" y="0px"
	 width="64px" height="64px" viewBox="0 0 64 64" enable-background="new 0 0 64 64" xml:space="preserve">
<g>
	<path d="M60.529,14.649l-15.858-3.937c-0.917-0.234-1.823-0.337-2.69-0.336c-0.047-0.001-0.09-0.007-0.137-0.007h-2.947
		c-0.744,3.1-3.527,5.407-6.856,5.407s-6.112-2.307-6.857-5.407h-2.851c-0.046,0-0.091,0.006-0.137,0.007
		c-0.875-0.004-1.789,0.1-2.715,0.336L3.624,14.649c-1.081,0.268-1.734,1.361-1.459,2.44l1.729,6.779
		c0.275,1.079,1.375,1.737,2.456,1.468l5.022-1.247c1.081-0.268,1.957,0.417,1.957,1.531v31.837c0,1.113,0.903,2.018,2.017,2.018
		h33.486c1.113,0,2.018-0.904,2.018-2.018V25.626c0-1.114,0.875-1.799,1.957-1.531l4.996,1.24c1.081,0.268,2.182-0.389,2.456-1.468
		l1.729-6.779C62.264,16.009,61.611,14.917,60.529,14.649z M28.298,45.885H23.74V29.917h-0.062l-3.845,1.829l-0.775-3.535
		l5.364-2.48h3.876V45.885z M46.154,45.885H31.86v-2.853l2.574-2.325c4.434-3.969,6.572-6.232,6.604-8.589
		c0-1.644-0.961-2.945-3.286-2.945c-1.736,0-3.256,0.868-4.31,1.644l-1.334-3.35c1.488-1.146,3.876-2.077,6.573-2.077
		c4.589,0,7.069,2.667,7.069,6.294c0,3.411-2.418,6.108-5.363,8.713l-1.861,1.551v0.062h7.628V45.885z"/>
	<polygon fill="#FFFFFF" points="19.058,28.211 19.833,31.746 23.678,29.917 23.74,29.917 23.74,45.885 28.298,45.885 
		28.298,25.731 24.422,25.731 	"/>
	<path fill="#FFFFFF" d="M38.526,41.947l1.861-1.551c2.945-2.604,5.363-5.302,5.363-8.713c0-3.627-2.48-6.294-7.069-6.294
		c-2.697,0-5.085,0.931-6.573,2.077l1.334,3.35c1.054-0.775,2.573-1.644,4.31-1.644c2.325,0,3.286,1.302,3.286,2.945
		c-0.031,2.356-2.17,4.62-6.604,8.589l-2.574,2.325v2.853h14.294v-3.876h-7.628V41.947z"/>
</g>
</svg>
