<?xml version="1.0" encoding="utf-8"?>
<!-- Generator: Adobe Illustrator 15.1.0, SVG Export Plug-In . SVG Version: 6.00 Build 0)  -->
<!DOCTYPE svg PUBLIC "-//W3C//DTD SVG 1.0//EN" "http://www.w3.org/TR/2001/REC-SVG-20010904/DTD/svg10.dtd">
<svg version="1.0" id="Calque_1" xmlns="http://www.w3.org/2000/svg" xmlns:xlink="http://www.w3.org/1999/xlink" x="0px" y="0px"
	 width="64px" height="64px" viewBox="0 0 64 64" enable-background="new 0 0 64 64" xml:space="preserve">
<g id="_x5F_13">
	<g>
		<path d="M60.529,14.649l-15.858-3.937c-0.917-0.234-1.823-0.337-2.69-0.336c-0.047-0.001-0.09-0.007-0.137-0.007h-2.947
			c-0.744,3.1-3.526,5.407-6.855,5.407s-6.112-2.307-6.857-5.407h-2.851c-0.046,0-0.091,0.006-0.137,0.007
			c-0.875-0.004-1.789,0.1-2.715,0.336L3.624,14.649c-1.081,0.268-1.734,1.361-1.459,2.44l1.729,6.779
			c0.275,1.079,1.375,1.737,2.456,1.468l5.022-1.247c1.081-0.268,1.957,0.417,1.957,1.531v31.837c0,1.113,0.903,2.018,2.017,2.018
			h33.486c1.113,0,2.018-0.904,2.018-2.018V25.626c0-1.114,0.875-1.799,1.957-1.531l4.996,1.24c1.081,0.268,2.182-0.389,2.456-1.468
			l1.729-6.779C62.264,16.009,61.611,14.917,60.529,14.649z M28.298,45.885H23.74V29.917h-0.062l-3.845,1.829l-0.775-3.535
			l5.364-2.48h3.876V45.885z M37.689,46.227c-2.604,0-4.807-0.683-5.983-1.396l0.961-3.564c0.837,0.465,2.76,1.239,4.683,1.239
			c2.448,0,3.688-1.178,3.688-2.666c0-2.016-1.983-2.915-4.062-2.915h-1.924v-3.379h1.861c1.581,0,3.564-0.621,3.564-2.326
			c0-1.209-0.961-2.108-2.977-2.108c-1.645,0-3.38,0.714-4.188,1.21l-0.96-3.411c1.208-0.775,3.597-1.52,6.232-1.52
			c4.279,0,6.666,2.264,6.666,5.023c0,2.14-1.209,3.845-3.689,4.682v0.062c2.418,0.435,4.373,2.264,4.373,4.931
			C45.938,43.621,42.807,46.227,37.689,46.227z"/>
		<polygon fill="#FFFFFF" points="19.058,28.211 19.833,31.746 23.678,29.917 23.74,29.917 23.74,45.885 28.298,45.885 
			28.298,25.731 24.422,25.731 		"/>
		<path fill="#FFFFFF" d="M41.564,35.156v-0.062c2.48-0.837,3.689-2.542,3.689-4.682c0-2.76-2.387-5.023-6.666-5.023
			c-2.636,0-5.023,0.744-6.232,1.52l0.96,3.411c0.808-0.496,2.543-1.21,4.188-1.21c2.016,0,2.977,0.899,2.977,2.108
			c0,1.705-1.983,2.326-3.564,2.326h-1.861v3.379h1.924c2.076,0,4.062,0.899,4.062,2.915c0,1.488-1.24,2.666-3.688,2.666
			c-1.922,0-3.846-0.773-4.683-1.24l-0.961,3.565c1.179,0.714,3.379,1.396,5.983,1.396c5.115,0,8.248-2.604,8.248-6.139
			C45.938,37.42,43.982,35.591,41.564,35.156z"/>
	</g>
</g>
</svg>
