<?xml version="1.0" encoding="utf-8"?>
<!-- Generator: Adobe Illustrator 15.1.0, SVG Export Plug-In . SVG Version: 6.00 Build 0)  -->
<!DOCTYPE svg PUBLIC "-//W3C//DTD SVG 1.0//EN" "http://www.w3.org/TR/2001/REC-SVG-20010904/DTD/svg10.dtd">
<svg version="1.0" id="_x5F_14" xmlns="http://www.w3.org/2000/svg" xmlns:xlink="http://www.w3.org/1999/xlink" x="0px" y="0px"
	 width="64px" height="64px" viewBox="0 0 64 64" enable-background="new 0 0 64 64" xml:space="preserve">
<g>
	<path d="M38.31,33.079l-2.666,4.403l-0.031,0.062h4.558v-4.465c0-1.209,0.062-2.449,0.124-3.751h-0.093
		C39.55,30.63,38.992,31.809,38.31,33.079z"/>
	<path d="M60.529,14.649l-15.858-3.937c-0.917-0.234-1.823-0.337-2.69-0.336c-0.047-0.001-0.09-0.007-0.137-0.007h-2.947
		c-0.744,3.1-3.527,5.407-6.856,5.407s-6.112-2.307-6.857-5.407h-2.851c-0.046,0-0.091,0.006-0.137,0.007
		c-0.875-0.004-1.789,0.1-2.715,0.336L3.624,14.649c-1.081,0.268-1.734,1.361-1.459,2.44l1.729,6.779
		c0.275,1.079,1.375,1.737,2.456,1.468l5.022-1.247c1.081-0.268,1.957,0.417,1.957,1.531v31.837c0,1.113,0.903,2.018,2.017,2.018
		h33.486c1.113,0,2.018-0.904,2.018-2.018V25.626c0-1.114,0.875-1.799,1.957-1.531l4.996,1.24c1.081,0.268,2.182-0.389,2.456-1.468
		l1.729-6.779C62.264,16.009,61.611,14.917,60.529,14.649z M28.298,45.885H23.74V29.917h-0.062l-3.845,1.829l-0.775-3.535
		l5.364-2.48h3.876V45.885z M47.022,41.079h-2.388v4.806H40.17v-4.806h-8.93V38.01l7.597-12.279h5.798v11.813h2.388V41.079z"/>
	<polygon fill="#FFFFFF" points="19.058,28.211 19.833,31.746 23.678,29.917 23.74,29.917 23.74,45.885 28.298,45.885 
		28.298,25.731 24.422,25.731 	"/>
	<path fill="#FFFFFF" d="M44.635,25.731h-5.798L31.24,38.01v3.069h8.93v4.806h4.465v-4.806h2.388v-3.535h-2.388V25.731z
		 M40.17,33.079v4.465h-4.558l0.031-0.062l2.666-4.403c0.683-1.271,1.24-2.449,1.892-3.751h0.093
		C40.232,30.63,40.17,31.87,40.17,33.079z"/>
</g>
</svg>
