<?xml version="1.0" encoding="utf-8"?>
<!-- Generator: Adobe Illustrator 15.1.0, SVG Export Plug-In . SVG Version: 6.00 Build 0)  -->
<!DOCTYPE svg PUBLIC "-//W3C//DTD SVG 1.0//EN" "http://www.w3.org/TR/2001/REC-SVG-20010904/DTD/svg10.dtd">
<svg version="1.0" id="_x5F_15" xmlns="http://www.w3.org/2000/svg" xmlns:xlink="http://www.w3.org/1999/xlink" x="0px" y="0px"
	 width="64px" height="64px" viewBox="0 0 64 64" enable-background="new 0 0 64 64" xml:space="preserve">
<g>
	<path d="M60.529,14.649l-15.858-3.937c-0.917-0.234-1.823-0.337-2.69-0.336c-0.047-0.001-0.09-0.007-0.137-0.007h-2.947
		c-0.744,3.1-3.527,5.407-6.856,5.407s-6.112-2.307-6.857-5.407h-2.851c-0.046,0-0.091,0.006-0.137,0.007
		c-0.875-0.004-1.789,0.1-2.715,0.336L3.624,14.649c-1.081,0.268-1.734,1.361-1.459,2.44l1.729,6.779
		c0.275,1.079,1.375,1.737,2.456,1.468l5.022-1.247c1.081-0.268,1.957,0.417,1.957,1.531v31.837c0,1.113,0.903,2.018,2.017,2.018
		h33.486c1.113,0,2.018-0.904,2.018-2.018V25.626c0-1.114,0.875-1.799,1.957-1.531l4.996,1.24c1.081,0.268,2.182-0.389,2.456-1.468
		l1.729-6.779C62.264,16.009,61.611,14.917,60.529,14.649z M28.298,45.885H23.74V29.917h-0.062l-3.845,1.829l-0.775-3.535
		l5.364-2.48h3.876V45.885z M37.441,46.226c-2.449,0-4.495-0.558-5.612-1.147l0.869-3.534c0.867,0.435,2.697,0.992,4.526,0.992
		c1.953,0,4.03-0.931,4.03-3.069c0-2.078-1.643-3.349-5.674-3.349c-1.116,0-1.891,0.062-2.697,0.186l1.303-10.573h11.1v3.875h-7.813
		l-0.435,3.101c0.435-0.062,0.807-0.062,1.303-0.062c1.922,0,3.906,0.434,5.302,1.457c1.52,1.023,2.45,2.697,2.45,5.054
		C46.093,42.908,42.868,46.226,37.441,46.226z"/>
	<polygon fill="#FFFFFF" points="19.058,28.211 19.833,31.746 23.678,29.917 23.74,29.917 23.74,45.885 28.298,45.885 
		28.298,25.731 24.422,25.731 	"/>
	<path fill="#FFFFFF" d="M43.643,34.103c-1.396-1.023-3.38-1.457-5.302-1.457c-0.496,0-0.868,0-1.303,0.062l0.435-3.101h7.813
		v-3.875h-11.1l-1.303,10.573c0.807-0.124,1.581-0.186,2.697-0.186c4.031,0,5.674,1.271,5.674,3.349c0,2.139-2.077,3.069-4.03,3.069
		c-1.829,0-3.659-0.558-4.526-0.992l-0.869,3.534c1.117,0.59,3.163,1.147,5.612,1.147c5.427,0,8.651-3.317,8.651-7.069
		C46.093,36.8,45.162,35.126,43.643,34.103z"/>
</g>
</svg>
