<?xml version="1.0" encoding="utf-8"?>
<!-- Generator: Adobe Illustrator 15.1.0, SVG Export Plug-In . SVG Version: 6.00 Build 0)  -->
<!DOCTYPE svg PUBLIC "-//W3C//DTD SVG 1.0//EN" "http://www.w3.org/TR/2001/REC-SVG-20010904/DTD/svg10.dtd">
<svg version="1.0" id="_x5F_6" xmlns="http://www.w3.org/2000/svg" xmlns:xlink="http://www.w3.org/1999/xlink" x="0px" y="0px"
	 width="64px" height="64px" viewBox="0 0 64 64" enable-background="new 0 0 64 64" xml:space="preserve">
<g>
	<path d="M32.063,35.715c-1.271,0-2.326,0.775-2.76,1.768c-0.155,0.279-0.217,0.65-0.217,1.209c0.093,2.14,1.116,4.062,3.286,4.062
		c1.644,0,2.698-1.519,2.698-3.565C35.071,37.327,34.079,35.715,32.063,35.715z"/>
	<path d="M60.529,14.649l-15.858-3.937c-0.917-0.234-1.823-0.337-2.69-0.336c-0.047-0.001-0.09-0.007-0.137-0.007h-2.947
		c-0.744,3.1-3.527,5.407-6.856,5.407s-6.112-2.307-6.857-5.407h-2.851c-0.046,0-0.091,0.006-0.137,0.007
		c-0.875-0.004-1.789,0.1-2.715,0.336L3.624,14.649c-1.081,0.268-1.734,1.361-1.459,2.44l1.729,6.779
		c0.275,1.079,1.375,1.737,2.456,1.468l5.022-1.247c1.081-0.268,1.957,0.417,1.957,1.531v31.837c0,1.113,0.903,2.018,2.017,2.018
		h33.486c1.113,0,2.018-0.904,2.018-2.018V25.626c0-1.114,0.875-1.799,1.957-1.531l4.996,1.24c1.081,0.268,2.182-0.389,2.456-1.468
		l1.729-6.779C62.264,16.009,61.611,14.917,60.529,14.649z M32.436,46.226c-5.396,0-8.031-3.999-8.031-8.806
		c0-3.782,1.395-6.945,3.597-8.991c1.984-1.829,4.62-2.791,7.751-2.946c0.868-0.093,1.457-0.062,1.892-0.031v3.628
		c-0.527-0.031-1.085,0-1.829,0.062c-4.187,0.341-6.047,2.48-6.574,4.806h0.094c0.992-0.992,2.418-1.581,4.278-1.581
		c3.38,0,6.232,2.388,6.232,6.573C39.846,42.939,36.776,46.226,32.436,46.226z"/>
	<path fill="#FFFFFF" d="M33.613,32.366c-1.86,0-3.286,0.589-4.278,1.581h-0.094c0.527-2.325,2.388-4.465,6.574-4.806
		c0.744-0.062,1.302-0.093,1.829-0.062v-3.628c-0.435-0.031-1.023-0.062-1.892,0.031c-3.132,0.155-5.768,1.117-7.751,2.946
		c-2.202,2.046-3.597,5.209-3.597,8.991c0,4.807,2.635,8.806,8.031,8.806c4.341,0,7.41-3.286,7.41-7.286
		C39.846,34.754,36.993,32.366,33.613,32.366z M32.373,42.753c-2.17,0-3.193-1.922-3.286-4.062c0-0.559,0.062-0.93,0.217-1.209
		c0.434-0.992,1.488-1.768,2.76-1.768c2.016,0,3.008,1.612,3.008,3.473C35.071,41.234,34.017,42.753,32.373,42.753z"/>
</g>
</svg>
