<?xml version="1.0" encoding="utf-8"?>
<!-- Generator: Adobe Illustrator 15.1.0, SVG Export Plug-In . SVG Version: 6.00 Build 0)  -->
<!DOCTYPE svg PUBLIC "-//W3C//DTD SVG 1.0//EN" "http://www.w3.org/TR/2001/REC-SVG-20010904/DTD/svg10.dtd">
<svg version="1.0" id="_x5F_7" xmlns="http://www.w3.org/2000/svg" xmlns:xlink="http://www.w3.org/1999/xlink" x="0px" y="0px"
	 width="64px" height="64px" viewBox="0 0 64 64" enable-background="new 0 0 64 64" xml:space="preserve">
<g>
	<path d="M60.529,14.649l-15.858-3.937c-0.917-0.234-1.823-0.337-2.69-0.336c-0.047-0.001-0.09-0.007-0.137-0.007h-2.947
		c-0.744,3.1-3.527,5.407-6.856,5.407s-6.112-2.307-6.857-5.407h-2.851c-0.046,0-0.091,0.006-0.137,0.007
		c-0.875-0.004-1.789,0.1-2.715,0.336L3.624,14.649c-1.081,0.268-1.734,1.361-1.459,2.44l1.729,6.779
		c0.275,1.079,1.375,1.737,2.456,1.468l5.022-1.247c1.081-0.268,1.957,0.417,1.957,1.531v31.837c0,1.113,0.903,2.018,2.017,2.018
		h33.486c1.113,0,2.018-0.904,2.018-2.018V25.626c0-1.114,0.875-1.799,1.957-1.531l4.996,1.24c1.081,0.268,2.182-0.389,2.456-1.468
		l1.729-6.779C62.264,16.009,61.611,14.917,60.529,14.649z M39.226,28.707l-8.31,17.178h-4.992l8.31-16.216v-0.062h-9.239v-3.875
		h14.231V28.707z"/>
	<polygon fill="#FFFFFF" points="24.994,29.606 34.233,29.606 34.233,29.669 25.924,45.885 30.916,45.885 39.226,28.707 
		39.226,25.731 24.994,25.731 	"/>
</g>
</svg>
