<?xml version="1.0" encoding="utf-8"?>
<!-- Generator: Adobe Illustrator 15.1.0, SVG Export Plug-In . SVG Version: 6.00 Build 0)  -->
<!DOCTYPE svg PUBLIC "-//W3C//DTD SVG 1.0//EN" "http://www.w3.org/TR/2001/REC-SVG-20010904/DTD/svg10.dtd">
<svg version="1.0" id="_x5F_8" xmlns="http://www.w3.org/2000/svg" xmlns:xlink="http://www.w3.org/1999/xlink" x="0px" y="0px"
	 width="64px" height="64px" viewBox="0 0 64 64" enable-background="new 0 0 64 64" xml:space="preserve">
<g>
	<path d="M32.436,33.638c1.085-0.311,2.046-1.303,2.046-2.543c0-1.271-0.713-2.511-2.449-2.511c-1.612,0-2.418,1.085-2.418,2.325
		C29.614,32.273,30.823,33.142,32.436,33.638z"/>
	<path d="M31.722,37.141c-1.55,0.435-2.449,1.551-2.449,3.008c-0.031,1.457,1.086,2.822,2.853,2.822c1.644,0,2.76-1.086,2.76-2.512
		C34.885,38.691,33.552,37.637,31.722,37.141z"/>
	<path d="M60.529,14.649l-15.858-3.937c-0.917-0.234-1.823-0.337-2.69-0.336c-0.047-0.001-0.09-0.007-0.137-0.007h-2.947
		c-0.744,3.1-3.527,5.407-6.856,5.407s-6.112-2.307-6.857-5.407h-2.851c-0.046,0-0.091,0.006-0.137,0.007
		c-0.875-0.004-1.789,0.1-2.715,0.336L3.624,14.649c-1.081,0.268-1.734,1.361-1.459,2.44l1.729,6.779
		c0.275,1.079,1.375,1.737,2.456,1.468l5.022-1.247c1.081-0.268,1.957,0.417,1.957,1.531v31.837c0,1.113,0.903,2.018,2.017,2.018
		h33.486c1.113,0,2.018-0.904,2.018-2.018V25.626c0-1.114,0.875-1.799,1.957-1.531l4.996,1.24c1.081,0.268,2.182-0.389,2.456-1.468
		l1.729-6.779C62.264,16.009,61.611,14.917,60.529,14.649z M31.939,46.226c-5.116,0-7.473-2.884-7.473-5.612
		c0-2.418,1.396-4.092,3.597-5.054v-0.062c-1.953-1.023-2.915-2.667-2.915-4.434c0-3.411,3.07-5.675,7.1-5.675
		c4.713,0,6.666,2.729,6.666,5.179c0,1.736-0.93,3.441-2.945,4.434v0.093c1.984,0.744,3.721,2.419,3.721,4.992
		C39.69,43.745,36.621,46.226,31.939,46.226z"/>
	<path fill="#FFFFFF" d="M35.97,35.095v-0.093c2.016-0.992,2.945-2.697,2.945-4.434c0-2.45-1.953-5.179-6.666-5.179
		c-4.03,0-7.1,2.264-7.1,5.675c0,1.767,0.961,3.41,2.915,4.434v0.062c-2.201,0.962-3.597,2.636-3.597,5.054
		c0,2.729,2.356,5.612,7.473,5.612c4.682,0,7.751-2.48,7.751-6.139C39.69,37.514,37.954,35.839,35.97,35.095z M32.032,28.584
		c1.736,0,2.449,1.24,2.449,2.511c0,1.24-0.961,2.232-2.046,2.543c-1.612-0.496-2.821-1.364-2.821-2.729
		C29.614,29.669,30.42,28.584,32.032,28.584z M32.125,42.971c-1.767,0-2.884-1.365-2.853-2.822c0-1.457,0.899-2.573,2.449-3.008
		c1.83,0.496,3.163,1.551,3.163,3.318C34.885,41.885,33.769,42.971,32.125,42.971z"/>
</g>
</svg>
