<?xml version="1.0" encoding="utf-8"?>
<!-- Generator: Adobe Illustrator 15.1.0, SVG Export Plug-In . SVG Version: 6.00 Build 0)  -->
<!DOCTYPE svg PUBLIC "-//W3C//DTD SVG 1.0//EN" "http://www.w3.org/TR/2001/REC-SVG-20010904/DTD/svg10.dtd">
<svg version="1.0" id="_x5F_9" xmlns="http://www.w3.org/2000/svg" xmlns:xlink="http://www.w3.org/1999/xlink" x="0px" y="0px"
	 width="64px" height="64px" viewBox="0 0 64 64" enable-background="new 0 0 64 64" xml:space="preserve">
<g>
	<path d="M31.815,28.832c-1.582,0-2.729,1.426-2.729,3.534c0,1.736,0.961,3.225,2.853,3.225c1.302,0,2.201-0.589,2.636-1.302
		c0.154-0.311,0.217-0.621,0.217-1.21C34.823,30.939,34.017,28.832,31.815,28.832z"/>
	<path d="M60.529,14.649l-15.858-3.937c-0.917-0.234-1.823-0.337-2.69-0.336c-0.047-0.001-0.09-0.007-0.137-0.007h-2.947
		c-0.744,3.1-3.527,5.407-6.856,5.407s-6.112-2.307-6.857-5.407h-2.851c-0.046,0-0.091,0.006-0.137,0.007
		c-0.875-0.004-1.789,0.1-2.715,0.336L3.624,14.649c-1.081,0.268-1.734,1.361-1.459,2.44l1.729,6.779
		c0.275,1.079,1.375,1.737,2.456,1.468l5.022-1.247c1.081-0.268,1.957,0.417,1.957,1.531v31.837c0,1.113,0.903,2.018,2.017,2.018
		h33.486c1.113,0,2.018-0.904,2.018-2.018V25.626c0-1.114,0.875-1.799,1.957-1.531l4.996,1.24c1.081,0.268,2.182-0.389,2.456-1.468
		l1.729-6.779C62.264,16.009,61.611,14.917,60.529,14.649z M36.094,43.373c-1.922,1.736-4.589,2.667-7.72,2.791
		c-0.775,0.062-1.612,0.031-2.139,0v-3.659c0.62,0.062,1.116,0.031,2.046,0c1.457-0.093,2.915-0.496,3.969-1.24
		c1.334-0.899,2.201-2.232,2.543-3.751l-0.062-0.031c-0.898,0.93-2.232,1.457-4.062,1.457c-3.411,0-6.263-2.356-6.263-6.294
		c0-3.938,3.163-7.256,7.596-7.256c5.178,0,7.628,3.969,7.628,8.682C39.629,38.288,38.296,41.327,36.094,43.373z"/>
	<path fill="#FFFFFF" d="M32.001,25.39c-4.434,0-7.596,3.317-7.596,7.256c0,3.938,2.853,6.294,6.263,6.294
		c1.829,0,3.163-0.527,4.062-1.457l0.062,0.031c-0.342,1.519-1.209,2.852-2.543,3.751c-1.054,0.744-2.512,1.147-3.969,1.24
		c-0.93,0.031-1.426,0.062-2.046,0v3.659c0.527,0.031,1.364,0.062,2.139,0c3.131-0.124,5.798-1.055,7.72-2.791
		c2.202-2.046,3.535-5.085,3.535-9.302C39.629,29.358,37.179,25.39,32.001,25.39z M34.575,34.289
		c-0.435,0.713-1.334,1.302-2.636,1.302c-1.892,0-2.853-1.488-2.853-3.225c0-2.108,1.146-3.534,2.729-3.534
		c2.201,0,3.008,2.107,2.977,4.247C34.792,33.668,34.729,33.979,34.575,34.289z"/>
</g>
</svg>
